HIERARCHY
ROOT Hips
{
	OFFSET 0.000000 121.760803 0.000000
	CHANNELS 6 Xposition Yposition Zposition Xrotation Yrotation Zrotation 
	JOINT Spine
	{
		OFFSET 0.072000 7.257294 -0.789700
		CHANNELS 3 Xrotation Yrotation Zrotation
		JOINT Spine1
		{
			OFFSET 0.000000 12.508769 -0.658067
			CHANNELS 3 Xrotation Yrotation Zrotation
			JOINT Spine1_split
			{
				OFFSET 0.000000 12.508769 -0.658067
				CHANNELS 3 Xrotation Yrotation Zrotation
				JOINT Spine2
				{
					OFFSET 0.000000 12.508769 -0.658067
					CHANNELS 3 Xrotation Yrotation Zrotation
					JOINT Neck
					{
						OFFSET 0.000000 14.033295 7.520400
						CHANNELS 3 Xrotation Yrotation Zrotation
						JOINT Head
						{
							OFFSET 0.000000 8.198502 5.703100
							CHANNELS 3 Xrotation Yrotation Zrotation
							JOINT HeadTop_End
							{
								OFFSET 0.000000 17.760803 13.332701
								CHANNELS 3 Xrotation Yrotation Zrotation
								End Site
								{
									OFFSET 0.000000 0.000000 0.000000
								}
							}
						}
					}
					JOINT LeftShoulder
					{
						OFFSET 6.292450 5.785301 -0.669000
						CHANNELS 3 Xrotation Yrotation Zrotation
						JOINT LeftShoulder_split
						{
							OFFSET 6.292450 5.785301 -0.669000
							CHANNELS 3 Xrotation Yrotation Zrotation
							JOINT LeftArm
							{
								OFFSET 13.907140 -6.093903 1.965100
								CHANNELS 3 Xrotation Yrotation Zrotation
								JOINT LeftForeArm
								{
									OFFSET 34.140198 0.000000 0.000000
									CHANNELS 3 Xrotation Yrotation Zrotation
									JOINT LeftHand
									{
										OFFSET 40.960209 0.000000 0.000000
										CHANNELS 3 Xrotation Yrotation Zrotation
										JOINT LeftHandThumb1
										{
											OFFSET 10.006996 -7.170425 9.573125
											CHANNELS 3 Xrotation Yrotation Zrotation
											JOINT LeftHandThumb2
											{
												OFFSET 1.835007 -1.059448 1.059443
												CHANNELS 3 Xrotation Yrotation Zrotation
												JOINT LeftHandThumb3
												{
													OFFSET 2.112267 -1.219513 1.219518
													CHANNELS 3 Xrotation Yrotation Zrotation
													JOINT LeftHandThumb4
													{
														OFFSET 4.843811 -2.796570 2.796576
														CHANNELS 3 Xrotation Yrotation Zrotation
														End Site
														{
															OFFSET 0.000000 0.000000 0.000000
														}
													}
												}
											}
										}
										JOINT LeftHandIndex1
										{
											OFFSET 18.389847 -0.922348 4.596882
											CHANNELS 3 Xrotation Yrotation Zrotation
											JOINT LeftHandIndex2
											{
												OFFSET 4.711273 0.000000 0.000000
												CHANNELS 3 Xrotation Yrotation Zrotation
												JOINT LeftHandIndex3
												{
													OFFSET 2.886131 0.000000 0.000000
													CHANNELS 3 Xrotation Yrotation Zrotation
													JOINT LeftHandIndex4
													{
														OFFSET 6.145912 0.000000 0.000000
														CHANNELS 3 Xrotation Yrotation Zrotation
														End Site
														{
															OFFSET 0.000000 0.000000 0.000000
														}
													}
												}
											}
										}
										JOINT LeftHandMiddle1
										{
											OFFSET 18.013008 0.000000 0.000000
											CHANNELS 3 Xrotation Yrotation Zrotation
											JOINT LeftHandMiddle2
											{
												OFFSET 4.946693 0.000000 0.000000
												CHANNELS 3 Xrotation Yrotation Zrotation
												JOINT LeftHandMiddle3
												{
													OFFSET 3.342232 0.000000 0.000000
													CHANNELS 3 Xrotation Yrotation Zrotation
													JOINT LeftHandMiddle4
													{
														OFFSET 4.461754 0.000000 0.000000
														CHANNELS 3 Xrotation Yrotation Zrotation
														End Site
														{
															OFFSET 0.000000 0.000000 0.000000
														}
													}
												}
											}
										}
										JOINT LeftHandRing1
										{
											OFFSET 15.849892 -0.102921 -4.126150
											CHANNELS 3 Xrotation Yrotation Zrotation
											JOINT LeftHandRing2
											{
												OFFSET 3.527054 0.000000 0.000000
												CHANNELS 3 Xrotation Yrotation Zrotation
												JOINT LeftHandRing3
												{
													OFFSET 2.961098 0.000000 0.000000
													CHANNELS 3 Xrotation Yrotation Zrotation
													JOINT LeftHandRing4
													{
														OFFSET 4.927200 0.000000 0.000000
														CHANNELS 3 Xrotation Yrotation Zrotation
														End Site
														{
															OFFSET 0.000000 0.000000 0.000000
														}
													}
												}
											}
										}
										JOINT LeftHandPinky1
										{
											OFFSET 12.791824 -0.832031 -6.799156
											CHANNELS 3 Xrotation Yrotation Zrotation
											JOINT LeftHandPinky2
											{
												OFFSET 3.327133 0.000000 0.000000
												CHANNELS 3 Xrotation Yrotation Zrotation
												JOINT LeftHandPinky3
												{
													OFFSET 3.014900 0.000000 0.000000
													CHANNELS 3 Xrotation Yrotation Zrotation
													JOINT LeftHandPinky4
													{
														OFFSET 5.847786 0.000000 0.000000
														CHANNELS 3 Xrotation Yrotation Zrotation
														End Site
														{
															OFFSET 0.000000 0.000000 0.000000
														}
													}
												}
											}
										}
									}
								}
							}
						}
					}
					JOINT RightShoulder
					{
						OFFSET -6.292450 5.785301 -0.669000
						CHANNELS 3 Xrotation Yrotation Zrotation
						JOINT RightShoulder_split
						{
							OFFSET -6.292450 5.785301 -0.669000
							CHANNELS 3 Xrotation Yrotation Zrotation
							JOINT RightArm
							{
								OFFSET -13.907140 -6.093903 1.965100
								CHANNELS 3 Xrotation Yrotation Zrotation
								JOINT RightForeArm
								{
									OFFSET -34.140198 0.000000 0.000000
									CHANNELS 3 Xrotation Yrotation Zrotation
									JOINT RightHand
									{
										OFFSET -40.960209 0.000000 0.000000
										CHANNELS 3 Xrotation Yrotation Zrotation
										JOINT RightHandThumb1
										{
											OFFSET -10.007050 -7.170456 9.573117
											CHANNELS 3 Xrotation Yrotation Zrotation
											JOINT RightHandThumb2
											{
												OFFSET -1.835007 -1.059448 1.059443
												CHANNELS 3 Xrotation Yrotation Zrotation
												JOINT RightHandThumb3
												{
													OFFSET -2.112267 -1.219513 1.219518
													CHANNELS 3 Xrotation Yrotation Zrotation
													JOINT RightHandThumb4
													{
														OFFSET -4.843834 -2.796585 2.796590
														CHANNELS 3 Xrotation Yrotation Zrotation
														End Site
														{
															OFFSET 0.000000 0.000000 0.000000
														}
													}
												}
											}
										}
										JOINT RightHandIndex1
										{
											OFFSET -18.389870 -0.922424 4.596786
											CHANNELS 3 Xrotation Yrotation Zrotation
											JOINT RightHandIndex2
											{
												OFFSET -4.711273 0.000000 0.000000
												CHANNELS 3 Xrotation Yrotation Zrotation
												JOINT RightHandIndex3
												{
													OFFSET -2.886131 0.000000 0.000000
													CHANNELS 3 Xrotation Yrotation Zrotation
													JOINT RightHandIndex4
													{
														OFFSET -6.145920 0.000000 0.000000
														CHANNELS 3 Xrotation Yrotation Zrotation
														End Site
														{
															OFFSET 0.000000 0.000000 0.000000
														}
													}
												}
											}
										}
										JOINT RightHandMiddle1
										{
											OFFSET -18.013008 0.000000 0.000000
											CHANNELS 3 Xrotation Yrotation Zrotation
											JOINT RightHandMiddle2
											{
												OFFSET -4.946693 0.000000 0.000000
												CHANNELS 3 Xrotation Yrotation Zrotation
												JOINT RightHandMiddle3
												{
													OFFSET -3.342232 0.000000 0.000000
													CHANNELS 3 Xrotation Yrotation Zrotation
													JOINT RightHandMiddle4
													{
														OFFSET -4.461754 0.000000 0.000000
														CHANNELS 3 Xrotation Yrotation Zrotation
														End Site
														{
															OFFSET 0.000000 0.000000 0.000000
														}
													}
												}
											}
										}
										JOINT RightHandRing1
										{
											OFFSET -15.849876 -0.102936 -4.126237
											CHANNELS 3 Xrotation Yrotation Zrotation
											JOINT RightHandRing2
											{
												OFFSET -3.527054 0.000000 0.000000
												CHANNELS 3 Xrotation Yrotation Zrotation
												JOINT RightHandRing3
												{
													OFFSET -2.961098 0.000000 0.000000
													CHANNELS 3 Xrotation Yrotation Zrotation
													JOINT RightHandRing4
													{
														OFFSET -4.927200 0.000000 0.000000
														CHANNELS 3 Xrotation Yrotation Zrotation
														End Site
														{
															OFFSET 0.000000 0.000000 0.000000
														}
													}
												}
											}
										}
										JOINT RightHandPinky1
										{
											OFFSET -12.791786 -0.832077 -6.799222
											CHANNELS 3 Xrotation Yrotation Zrotation
											JOINT RightHandPinky2
											{
												OFFSET -3.327133 0.000000 0.000000
												CHANNELS 3 Xrotation Yrotation Zrotation
												JOINT RightHandPinky3
												{
													OFFSET -3.014900 0.000000 0.000000
													CHANNELS 3 Xrotation Yrotation Zrotation
													JOINT RightHandPinky4
													{
														OFFSET -5.847786 0.000000 0.000000
														CHANNELS 3 Xrotation Yrotation Zrotation
														End Site
														{
															OFFSET 0.000000 0.000000 0.000000
														}
													}
												}
											}
										}
									}
								}
							}
						}
					}
				}
			}
		}
	}
	JOINT LeftUpLeg
	{
		OFFSET 13.026900 -6.336304 -1.092800
		CHANNELS 3 Xrotation Yrotation Zrotation
		JOINT LeftLeg
		{
			OFFSET 0.524474 -46.096886 9.782700
			CHANNELS 3 Xrotation Yrotation Zrotation
			JOINT LeftFoot
			{
				OFFSET -0.524474 -53.427422 -12.948200
				CHANNELS 3 Xrotation Yrotation Zrotation
				JOINT LeftToeBase
				{
					OFFSET 0.192200 -14.009700 16.364100
					CHANNELS 3 Xrotation Yrotation Zrotation
					JOINT LeftToe_End
					{
						OFFSET -1.784700 -0.561700 9.474800
						CHANNELS 3 Xrotation Yrotation Zrotation
						End Site
						{
							OFFSET 0.000000 0.000000 0.000000
						}
					}
				}
			}
		}
	}
	JOINT RightUpLeg
	{
		OFFSET -12.883000 -6.336304 -1.092800
		CHANNELS 3 Xrotation Yrotation Zrotation
		JOINT RightLeg
		{
			OFFSET -0.524587 -46.096825 9.782800
			CHANNELS 3 Xrotation Yrotation Zrotation
			JOINT RightFoot
			{
				OFFSET 0.524587 -53.427383 -12.948300
				CHANNELS 3 Xrotation Yrotation Zrotation
				JOINT RightToeBase
				{
					OFFSET -0.192200 -14.009700 16.364100
					CHANNELS 3 Xrotation Yrotation Zrotation
					JOINT RightToe_End
					{
						OFFSET 1.784700 -0.561700 9.474800
						CHANNELS 3 Xrotation Yrotation Zrotation
						End Site
						{
							OFFSET 0.000000 0.000000 0.000000
						}
					}
				}
			}
		}
	}
}
MOTION
Frames: 4
Frame Time: 0.016667
-1.145288 95.926758 0.541078 11.742475 -49.637959 11.853846 11.000810 2.884743 -2.598252 6.100704 5.566528 -4.284681 0.000000 0.000000 0.000000 -5.786914 6.328142 -3.046185 2.318313 9.363376 -0.265394 -4.146495 23.161921 -3.523235 -0.000001 -0.000000 -0.000000 -1.875342 -16.181770 -2.870480 0.000000 0.000000 0.000000 -10.644677 2.164761 -45.510599 -22.862397 -25.786266 -15.871749 2.491050 -2.511841 6.860521 18.457966 -9.513807 13.216594 -1.150201 11.255347 -8.400859 5.706558 8.483107 -0.820712 0.000003 -0.000001 -0.000003 -1.232808 -5.771937 -0.192355 0.133933 -0.197638 -4.602126 0.055724 -0.448194 -7.568176 0.000001 0.000002 -0.000001 1.884738 4.663370 -4.597414 0.476681 -1.009842 -12.986409 0.628507 -1.346621 -16.554027 0.000001 0.000001 -0.000000 3.024593 7.938940 -14.103495 -0.707995 -0.566211 -18.895727 -0.726386 -0.705044 -22.058437 -0.000001 0.000003 0.000003 2.010375 6.305956 -22.386551 -0.815393 -0.210766 -16.746461 -2.232629 0.018979 -34.673851 -0.000001 0.000001 0.000003 -5.074619 24.343749 1.482673 0.000000 0.000000 0.000000 6.642358 -34.733742 57.610446 -21.031997 44.833806 19.961655 -0.087227 35.608501 7.474256 55.149526 18.649541 -29.698277 -0.442545 -14.180559 7.313154 21.666999 -29.244486 9.142374 0.000000 0.000000 -0.000001 5.673401 7.585007 36.844154 1.050473 3.824526 68.900237 0.499560 3.026030 62.196468 -0.000003 -0.000003 0.000004 -0.125707 1.886086 45.000773 -1.169002 3.204674 68.417663 -0.936405 1.813615 41.107565 -0.000000 0.000000 0.000000 -5.311993 1.216642 58.508773 -0.745230 1.667557 48.011292 -0.816448 1.840663 53.666541 0.000001 0.000001 -0.000002 -7.756824 -9.376444 47.264001 -0.526036 1.541577 45.600542 -0.508188 0.803445 24.986606 -0.000005 0.000001 -0.000001 -66.339346 27.373752 41.603229 43.627847 -19.169551 3.300700 6.155500 0.696569 -10.402341 -0.952521 -6.111280 0.979483 0.000000 0.000000 0.000000 -33.768308 0.305268 -25.532103 50.490828 2.246224 -6.583195 -23.895895 -2.614967 25.261332 0.528336 2.970077 1.471348 -0.000000 -0.000001 -0.000000 
-1.098091 95.895248 0.725120 11.257078 -51.234157 11.450304 11.016854 2.878951 -2.545883 6.138158 5.594442 -4.285142 0.000000 0.000000 0.000000 -5.748716 6.468380 -2.981398 2.489926 9.336458 -0.252154 -3.932296 23.122427 -3.588225 0.000000 0.000000 -0.000000 -1.831968 -15.691465 -2.734869 0.000000 0.000000 0.000000 -10.284164 1.988986 -45.432824 -22.867627 -26.152794 -16.049811 2.735584 -2.483696 6.839583 18.499210 -9.524864 13.108586 -1.077098 11.351622 -8.411984 5.800711 8.647349 -0.822994 0.000000 0.000002 -0.000001 -1.131500 -5.650992 -0.728765 0.094703 -0.195235 -5.161584 0.015998 -0.444483 -8.127760 -0.000001 0.000000 -0.000003 1.871901 4.626708 -5.322340 0.428606 -1.020187 -13.712004 0.578721 -1.355355 -17.279941 -0.000000 0.000001 -0.000002 2.961947 7.871826 -14.814790 -0.750700 -0.567343 -19.622488 -0.769360 -0.704605 -22.785363 -0.000002 -0.000000 -0.000000 1.926216 6.257259 -23.049054 -0.855973 -0.211689 -17.424835 -2.263978 0.037682 -35.352185 0.000003 0.000001 0.000002 -5.284792 25.012604 1.987639 0.000000 0.000000 0.000000 5.891127 -33.544166 56.610360 -21.351988 45.089828 20.683985 2.377816 34.175985 4.612046 55.149526 18.649538 -29.698274 -0.442550 -14.180561 7.313154 21.666998 -29.244486 9.142372 0.000001 0.000000 -0.000000 5.673399 7.585004 36.844151 1.050473 3.824529 68.900237 0.499560 3.026030 62.196468 -0.000002 -0.000000 0.000001 -0.125704 1.886080 45.000773 -1.169002 3.204670 68.417663 -0.936408 1.813615 41.107565 0.000001 0.000001 -0.000000 -5.311996 1.216642 58.508766 -0.745230 1.667557 48.011295 -0.816449 1.840662 53.666538 -0.000001 0.000001 -0.000001 -7.756825 -9.376445 47.263997 -0.526038 1.541577 45.600539 -0.508192 0.803443 24.986610 -0.000005 0.000001 -0.000001 -65.166985 26.992665 42.297917 44.195053 -19.262918 3.368643 5.034020 1.045127 -11.123646 -0.747540 -5.856640 0.958909 -0.000000 0.000002 -0.000000 -33.837785 0.541180 -25.304343 50.480347 3.105820 -6.558052 -23.745880 -1.938037 24.943122 0.489601 2.972095 1.458163 0.000000 0.000000 0.000000 
-1.080764 95.748291 0.987442 10.712522 -52.768273 10.962025 11.062948 2.898451 -2.413531 6.244017 5.671758 -4.285776 0.000000 0.000000 0.000000 -5.640077 6.608171 -2.917742 2.645285 9.260194 -0.213886 -3.676953 23.009495 -3.772381 -0.000000 -0.000000 -0.000000 -1.772846 -15.071258 -2.573298 0.000000 0.000000 0.000000 -9.648130 1.877982 -45.209278 -22.751845 -26.556761 -16.251530 3.425972 -2.405853 6.778295 18.614350 -9.555891 12.806421 -0.869301 11.618022 -8.438101 6.062217 9.107771 -0.832066 0.000001 0.000001 -0.000000 -0.835808 -5.325755 -2.231411 -0.013389 -0.184466 -6.726217 -0.093407 -0.430292 -9.692733 -0.000005 -0.000001 0.000001 1.834804 4.529847 -7.349811 0.295697 -1.043544 -15.741537 0.441509 -1.374344 -19.309993 0.000003 0.000000 -0.000000 2.782691 7.699100 -16.805740 -0.868385 -0.565359 -21.655185 -0.887356 -0.698289 -24.818242 0.000000 -0.000002 -0.000002 1.688316 6.136099 -24.903428 -0.968005 -0.209432 -19.322224 -2.348461 0.093899 -37.249403 -0.000000 0.000000 -0.000003 -5.414777 24.900582 2.343741 0.000000 0.000000 0.000000 4.830027 -31.450453 55.681652 -21.606730 44.967401 21.111015 4.968124 32.756013 1.699209 55.149529 18.649546 -29.698274 -0.442547 -14.180555 7.313156 21.666999 -29.244490 9.142375 -0.000000 0.000001 0.000000 5.673400 7.585006 36.844161 1.050473 3.824531 68.900237 0.499563 3.026031 62.196461 -0.000002 -0.000000 0.000003 -0.125703 1.886079 45.000776 -1.169002 3.204675 68.417663 -0.936405 1.813616 41.107565 -0.000002 0.000001 -0.000002 -5.311993 1.216639 58.508773 -0.745229 1.667557 48.011295 -0.816448 1.840662 53.666541 -0.000001 0.000001 -0.000000 -7.756822 -9.376447 47.263997 -0.526038 1.541578 45.600542 -0.508190 0.803444 24.986606 0.000001 0.000001 -0.000001 -63.945378 26.059557 42.364235 45.802893 -18.517910 3.596545 3.534362 2.029065 -10.302984 -0.637868 -5.189288 -0.062675 0.000000 -0.000001 0.000000 -33.675602 1.149350 -24.875604 50.577496 3.655905 -6.628397 -23.721669 -1.592953 24.861836 0.378334 2.978189 1.420353 0.000000 -0.000001 -0.000000 
-1.079534 95.506310 1.329205 10.113529 -54.259832 10.397857 11.135366 2.937345 -2.218825 6.408565 5.788713 -4.285505 0.000000 0.000000 0.000000 -5.470568 6.747027 -2.854225 2.788237 9.140428 -0.154532 -3.388273 22.831767 -4.057899 -0.000000 -0.000000 0.000000 -1.680924 -14.154111 -2.352876 0.000000 0.000000 0.000000 -8.774226 1.650375 -44.932106 -22.530354 -26.999728 -16.467776 4.497329 -2.288685 6.678766 18.789965 -9.604253 12.342679 -0.550075 12.026285 -8.480243 6.464171 9.813380 -0.850634 -0.000001 -0.000001 -0.000002 -0.348423 -4.866019 -4.542056 -0.174141 -0.156903 -9.125355 -0.255544 -0.397723 -12.092327 -0.000000 0.000004 0.000000 1.775587 4.397497 -10.459149 0.097247 -1.063976 -18.853822 0.237241 -1.388248 -22.423098 -0.000001 0.000000 -0.000000 2.498691 7.477364 -19.862557 -1.042458 -0.547713 -24.771940 -1.061569 -0.674329 -27.935467 -0.000003 0.000000 -0.000001 1.318463 5.993295 -27.751376 -1.134457 -0.192157 -22.231448 -2.468684 0.190825 -40.158463 -0.000004 -0.000001 -0.000003 -5.461412 25.266477 2.495340 0.000000 0.000000 0.000000 3.915304 -29.781520 55.120006 -21.873945 44.541979 21.371817 7.589043 31.575678 -1.256831 55.149526 18.649541 -29.698277 -0.442548 -14.180557 7.313154 21.666999 -29.244483 9.142372 0.000000 -0.000001 0.000000 5.673397 7.585007 36.844154 1.050471 3.824532 68.900237 0.499564 3.026030 62.196468 0.000002 0.000002 0.000001 -0.125708 1.886083 45.000773 -1.169001 3.204678 68.417663 -0.936401 1.813616 41.107565 -0.000003 -0.000002 0.000003 -5.311994 1.216641 58.508766 -0.745229 1.667555 48.011288 -0.816454 1.840662 53.666538 0.000002 0.000000 -0.000004 -7.756827 -9.376444 47.263994 -0.526038 1.541576 45.600535 -0.508190 0.803443 24.986604 0.000002 0.000000 0.000000 -62.815126 24.457483 42.032007 48.254593 -17.070362 3.967906 2.043231 3.354337 -9.591727 -0.127154 -4.220727 -0.546843 -0.000000 -0.000000 -0.000000 -33.325039 2.082063 -24.295400 50.748879 3.952546 -6.774454 -23.805040 -1.523425 24.987246 0.202320 2.987561 1.360408 0.000000 0.000002 -0.000000 
